<svg xmlns="http://www.w3.org/2000/svg" width="41" height="41" viewBox="0 0 41 41">
    <g fill="none" fill-rule="evenodd" stroke-linecap="round" transform="translate(.75 .36)">
        <path stroke="#0B2135" d="M9.9 30.1h-4c-3.4 0-1.3-4-1.3-4s2-3.4 2-8.8V14C6.6 4.5 12 .5 20 .5c3.2 0 8.1 0 7.4 2 4-.7 6.1 5.4 6.1 11.5v3.4c0 6.1 2 8.8 2 8.8s2 4-1.3 4h-4"/>
        <path stroke="#FD4F57" stroke-linejoin="round" d="M29.4 21.5c.5.5.8 1.2.8 1.9 0 1.5-1.2 2.7-2.7 2.7h-4"/>
        <circle cx="22.1" cy="26.1" r="1.3" stroke="#FD4F57" stroke-linejoin="round"/>
        <path stroke="#36363D" d="M18 24.8s-1.3 0-2-1.3"/>
        <path stroke="#0B2135" d="M7.2 34.2C1.8 35.5.5 39.6.5 39.6M32.8 34.2c5.4 1.3 6.7 5.4 6.7 5.4"/>
        <path stroke="#FD4F57" stroke-linejoin="round" d="M30.1 34.2l-2.7-1.3-4 2.7v2.7s-1.3 1.3-3.4 1.3c-2.1 0-3.4-1.3-3.4-1.3v-2.7l-4-2.7-2.7 1.3M9.9 34.2l4.1 2.7M30.1 34.2l-4 2.7"/>
        <path stroke="#0B2135" d="M28.1 24.1c.9-2.2 2.1-6 2.1-8.1 0 0-2.7-2-2.7-4M27.5 9.3c-5.4 4-17.5 4-17.5 4V16c0 2.7 2 8.1 2.7 9.4.7 1.3 4 5.4 7.4 5.4 2.1 0 4.2-1.6 5.7-3.1"/>
    </g>
</svg>
