<svg xmlns="http://www.w3.org/2000/svg" width="41" height="51" viewBox="0 0 41 51">
    <g fill="none" fill-rule="evenodd" stroke-linecap="round" stroke-linejoin="round">
        <path stroke="#0B2135" d="M13.1 1.246v2.2"/>
        <path stroke="#FD4F57" d="M20.1 28.946L8 16.846c-1-1-2.6-1-3.6 0s-1 2.6 0 3.6l12.1 12.1c1 1 2.6 1 3.6 0s1-2.6 0-3.6zm0-7.3l-9.7-9.7c-1-1-2.6-1-3.6 0s-1 2.6 0 3.6l9.7 9.7c1 1 2.6 1 3.6 0 1-.9 1-2.6 0-3.6zm-.6-7.9l-6.7-6.7c-1-1-2.6-1-3.6 0s-1 2.6 0 3.6l6.7 6.7c1 1 2.6 1 3.6 0 1-.9 1-2.5 0-3.6zM12.6 28.646l-7-7c-1-1-2.6-1-3.6 0s-1 2.6 0 3.6l7 7c1 1 2.6 1 3.6 0 1-.9 1-2.6 0-3.6z"/>
        <path stroke="#0B2135" d="M14.8 35.546H7.9c-1.4 0-2.6 1.2-2.6 2.6 0 1.4 1.2 2.6 2.6 2.6h2.6"/>
        <path stroke="#0B2135" d="M3.5 31.246c-.4.5-.7 1.1-.7 1.7 0 1.4 1.2 2.6 2.6 2.6H8m30.8-13.7c0-8.6-5.1-12-5.1-13.7v-6.9m-4.3 35.1l-9.4 8.6s-.9.9-1.7.9h-7.8c-1.4 0-2.6-1.2-2.6-2.6 0-1.4 1.2-2.6 2.6-2.6h6c.9 0 1.7-.9 1.7-.9l6-6"/>
        <path stroke="#FD4F57" d="M33.7 50.946v-1.7c0-1.7 6.8-10.3 6.8-16.3 0-5.1-2.6-7.7-5.1-9.4-2-1.3-8.6-5.1-8.6-5.1-1.3-.6-2.6 2-2.6 3.4 0 1.7 1.7 2.6 3.4 4.3l4.3 4.3c.9.9.9.9.9 1.7 0 .2-.3.7-.7 1.2m-19 17.6v-1.7"/>
    </g>
</svg>
