<svg xmlns="http://www.w3.org/2000/svg" width="52" height="48" viewBox="0 0 52 48">
    <g fill="none" fill-rule="evenodd" stroke-linecap="round" stroke-linejoin="round">
        <path stroke="#FD4F57" d="M26 19.946c-1.4 0-2.6-1.2-2.6-2.6 0-1.4 1.2-2.6 2.6-2.6 1.4 0 2.6 1.2 2.6 2.6 0 1.4-1.2 2.6-2.6 2.6zm11.2 6c0-1.4-1.2-2.6-2.6-2.6-1.4 0-2.6 1.2-2.6 2.6 0 1.4 1.2 2.6 2.6 2.6 1.4 0 2.6-1.1 2.6-2.6zm-31 12.1c0-1.4-1.2-2.6-2.6-2.6-1.4 0-2.6 1.2-2.6 2.6 0 1.4 1.2 2.6 2.6 2.6 1.4 0 2.6-1.2 2.6-2.6zm44.8-25.9c0-1.4-1.2-2.6-2.6-2.6-1.4 0-2.6 1.2-2.6 2.6 0 1.4 1.2 2.6 2.6 2.6 1.4 0 2.6-1.1 2.6-2.6zm-27.2 6.6l-18 17.9 18-17.9zm22.8-4.7l-10.2 10.1 10.2-10.1zm-18.8 5.1l5 5-5-5z"/>
        <path stroke="#0B2135" stroke-width=".862" d="M49.3 17.646v26.4c0 1.9-1.5 3.4-3.4 3.4H6.2c-1.9 0-3.4-1.5-3.4-3.4m46.5-37.9v-1.7c0-1.9-1.5-3.4-3.4-3.4H6.2c-1.9 0-3.4 1.5-3.4 3.4v27.2m5.1 12.4v3.4m6.9-15.1v15.1m6.9-22.2v22.2m6.9 0v-22.2m6.9 22.2v-15.1m6.9-9v24.1"/>
    </g>
</svg>
