<svg xmlns="http://www.w3.org/2000/svg" width="53" height="53" viewBox="0 0 53 53">
    <g fill="none" fill-rule="evenodd" stroke-linecap="round" stroke-linejoin="round">
        <g stroke="#0B2135" stroke-width=".861">
            <path d="M9.7.846H4.4c-1.8 0-3.5 1.8-3.5 3.5v22.9m47.5 24.6v-.9c0-1.5-1.2-2.6-2.6-2.6H44c-1.5 0-2.6 1.2-2.6 2.6v.9h7zm-42.2-1.8v1.8-1.8zm3.5 0v1.8-1.8zm24.6 1.8v-1.8 1.8zm-7 0v-1.8 1.8zm3.5 0v-1.8 1.8zm0-5.3v-3.5 3.5zm-8.8 0v-3.5 3.5zm1.8 5.3v-1.8 1.8zm-3.5 0v-1.8 1.8zm-3.5 0v-1.8 1.8zm-3.6-1.8v1.8-1.8zM4.5 51.846h0z"/>
        </g>
        <path stroke="#FD4F57" d="M35.2 11.346v15.8m4.4-15.8v15.8m-24.6-3.5h-1.8m1.8-3.5h-1.8m14.1 7.1V.846H13.2v26.4h5.3m15.8-19.4h5.3l-4.4-7-4.4 7v19.3m-12.3-10.5h-5.3m0-3.5H15m-1.8-3.5H15m3.5-3.5h-5.3"/>
        <path stroke="#0B2135" stroke-width=".861" d="M39.6.846h8.8c1.8 0 3.5 1.8 3.5 3.5v31.7c0 1.8-1.8 3.5-3.5 3.5h-44c-1.8 0-3.5-1.8-3.5-3.5v-5.3h47.5"/>
        <path stroke="#0B2135" stroke-width=".861" d="M26.4 34.246c-.5 0-.9.4-.9.9s.4.9.9.9.9-.4.9-.9-.4-.9-.9-.9z"/>
    </g>
</svg>
