<svg xmlns="http://www.w3.org/2000/svg" width="37" height="37" viewBox="0 0 37 37">
    <g fill="none" fill-rule="evenodd" stroke-linecap="round" stroke-linejoin="round">
        <path stroke="#0B2135" d="M24.95 26.86s-.6-.6-1.8-.6h-3.6c-1.8 0-4.8-3.6-6.7-3.6h-4.8m-.1 8.4c2.4 0 3.6.6 3.6.6s5.4 3 9.1 3c4.2 0 6.1-1.2 6.1-1.2l8.2-5.1c.9-.5 1.2-1.6.7-2.5-.5-.9-1.6-1.2-2.5-.7l-7 3.4c-1.2.6-2.4.6-4.8.6s-6.1-.6-6.1-.6m-14.5-8.4h3.6c.7 0 1.2.5 1.2 1.2v13.3c0 .7-.5 1.2-1.2 1.2H.75"/>
        <path stroke="#FD4F57" d="M30.95 5.66h-1.2c-.7 0-1.2-.5-1.2-1.2V.76h-12.1c-.7 0-1.2.5-1.2 1.2v18.2c0 .7.5 1.2 1.2 1.2h15.7c.7 0 1.2-.5 1.2-1.2V5.66l-3-3m-6.6 3h-3.6m-.1 10.9h8.5m-8.5-3.6h7.3m-7.3-3.7h8.5"/>
    </g>
</svg>
