<svg xmlns="http://www.w3.org/2000/svg" width="67" height="52" viewBox="0 0 67 52">
    <g fill="none" fill-rule="evenodd" stroke-linecap="round" stroke-linejoin="round">
        <g transform="translate(.037 .318)">
            <circle cx="26.3" cy="34.5" r="1" stroke="#0B2135" stroke-width=".862"/>
            <path stroke="#FD4F57" d="M21.4 26.6l-6.6-10.7c-.6-1.1-.5-2.4.6-3 1.1-.6 2.1-.1 2.9 1l6.8 9.4c-.6-1.1-.3-2.5.8-3.1 1.1-.6 2.5-.3 3.1.8l.6 1c-.6-1.1-.3-2.5.8-3.1 1.1-.6 2.5-.3 3.1.8l.9 1.5c-.5-.8-.2-1.9.6-2.4s1.9-.1 2.4.6c0 0 2.5 3.5 4.3 8.6M16.1 5.6v3.5m6.2-.9l-2.5 2.4M9.9 8.2l2.5 2.4m-5 3.8h3.5m-1 6.1l2.5-2.4"/>
            <path stroke="#0B2135" stroke-width=".862" d="M30.7 42.3v5.2h3.5c1.7 0 3.5 1.7 3.5 3.5H14.9c0-1.7 1.7-3.5 3.5-3.5h8.7m-5.2-.2v-5M45.18 30.1H.9v5.2c0 2 1.5 3.5 3.5 3.5h40.78M51.6 3.9C51.6 2 50.1.4 48.1.4H4.4C2.5.4 1.1 2 .9 3.9v22.7m50.7-13.918V3.9"/>
        </g>
        <g transform="translate(47.292 16.318)">
            <path stroke="#0B2135" d="M18.4 2.5c0-1.2-1.2-2.4-2.4-2.4H2.9C1.7.1.5 1.3.5 2.5v23.9"/>
            <path stroke="#0B2135" d="M16 28.7H.5v3.6c0 1.2 1.2 2.4 2.4 2.4H16c1.2 0 2.4-1.2 2.4-2.4V4.8H2.9"/>
            <circle cx="9.5" cy="31.7" r="1" stroke="#0B2135"/>
            <path stroke="#0B2135" d="M10 2.5h2.4"/>
            <path stroke="#FD4F57" d="M13.6 8.4l1.2 1.2M10 8.4l4.8 4.8"/>
        </g>
    </g>
</svg>
