<svg xmlns="http://www.w3.org/2000/svg" width="53" height="53" viewBox="0 0 53 53">
    <g fill="none" fill-rule="evenodd" stroke-linecap="round" stroke-linejoin="round">
        <path stroke="#0B2135" d="M32.5 15.036H29h3.5zm14 0H43h3.5zm-7 0H36h3.5zm-26.3 0h-7 7zm5.3-9.6c0-.5-.4-.9-.9-.9s-.9.4-.9.9.4.9.9.9.9-.4.9-.9zm-5.3 0c0-.5-.4-.9-.9-.9s-.9.4-.9.9.4.9.9.9c.6 0 .9-.4.9-.9zm-5.2 0c0 .5-.4.9-.9.9s-.9-.4-.9-.9.4-.9.9-.9.9.4.9.9z"/>
        <path stroke="#FD4F57" d="M29 40.436c0-1.4-1.2-2.6-2.6-2.6-1.4 0-2.6 1.2-2.6 2.6 0 1.4 1.2 2.6 2.6 2.6 1.4 0 2.6-1.2 2.6-2.6zm5.2 0c0-4.3-3.5-7.9-7.9-7.9-4.3 0-7.9 3.5-7.9 7.9s3.5 7.9 7.9 7.9c4.4-.1 7.9-3.6 7.9-7.9z"/>
        <path stroke="#FD4F57" d="M14.1 48.236c-1-1.1-1.8-2.8-2.1-4.1-1.4-.3-2.8-.6-3.1-.7-.6-.1-.9-.7-.9-1.3v-3.5c0-.7.3-1.2.9-1.3.3-.1 1.7-.4 3.1-.7.4-1.4.9-2.6 1.6-3.8-.8-1.2-1.6-2.4-1.7-2.7-.4-.5-.1-1.1.3-1.5l2.5-2.5c.5-.5 1-.7 1.5-.3.3.2 1.5 1 2.7 1.7 1.2-.7 2.5-1.2 3.8-1.6.3-1.4.6-2.8.7-3.1.1-.6.7-.9 1.3-.9h3.5c.7 0 1.2.3 1.3.9.1.3.4 1.7.7 3.1 1.4.3 2.6.9 3.8 1.6 1.2-.8 2.4-1.6 2.7-1.7.5-.4 1.1-.1 1.5.3l2.5 2.5c.5.5.7 1 .3 1.5-.2.3-1 1.5-1.7 2.7.7 1.2 1.2 2.5 1.6 3.8 1.4.3 2.8.6 3.1.7.6.1.9.7.9 1.3v3.5c0 .7-.3 1.2-.9 1.3-.3.1-1.7.4-3.1.7-.3 1.4-1.1 3-2.1 4.1"/>
        <path stroke="#0B2135" d="M1 13.336v35c0 2 1.5 3.5 3.5 3.5h43.7c2 0 3.5-1.5 3.5-3.5v-43.8c0-1.9-1.6-3.5-3.5-3.5H4.5c-1.9 0-3.5 1.6-3.5 3.5v5.2h47.2"/>
    </g>
</svg>
