<svg xmlns="http://www.w3.org/2000/svg" width="76" height="53" viewBox="0 0 76 53">
    <g fill="none" fill-rule="evenodd">
        <g stroke-linecap="round" stroke-linejoin="round">
            <path stroke="#0B2135" d="M18.555 5.318c0-.4-.3-.9-.9-.9-.4 0-.9.4-.9.9s.4.9.9.9c.7 0 .9-.3.9-.9zm-5.2 0c0-.4-.4-.9-.9-.9-.4 0-.9.4-.9.9s.4.9.9.9c.6 0 .9-.3.9-.9zm-5.1 0c0-.4-.4-.9-.9-.9-.6 0-.9.4-.9.9s.4.9.9.9.9-.3.9-.9z"/>
            <path stroke="#FD4F57" d="M27.655 43.818v-9.8h3.6l.3-3.5h-3.9v-2.6c0-.6.1-1 .3-1.3.1-.3.6-.4 1.2-.4h2.3l.1-3.4h-.3c-.1 0-.6 0-1-.1h-1.3c-1.8 0-3.1.4-3.9 1.5-.9.9-1.3 2-1.3 3.5v3.1h-2.6v3.5h2.6v9.6c0-.1 3.9-.1 3.9-.1zm1.5-28.9h3.5-3.5zm7 0h3.5-3.5zm7 0h3.5-3.5zm-29.8 0h-6.9 6.9z"/>
            <path stroke="#0B2135" d="M48.355 9.718h-47.1v-5.3c0-1.9 1.6-3.5 3.5-3.5h43.6c1.9 0 3.5 1.6 3.5 3.5v43.8c0 1.9-1.6 3.5-3.5 3.5h-43.6c-1.9 0-3.5-1.6-3.5-3.5v-35"/>
        </g>
        <g transform="translate(61.555 26.95)">
            <rect width="9.792" height="9.792" y=".208" stroke="#FD4F57" rx="2"/>
            <circle cx="4.802" cy="5.044" r="2.482" stroke="#FD4F57"/>
            <circle cx="7.72" cy="2.151" r="1" fill="#FD4F57"/>
        </g>
        <g stroke="#0B2135" stroke-linecap="round" stroke-linejoin="round" transform="translate(56.712 16.318)">
            <path d="M18.4 2.5c0-1.2-1.2-2.4-2.4-2.4H2.9C1.7.1.5 1.3.5 2.5v23.9"/>
            <path d="M16 28.7H.5v3.6c0 1.2 1.2 2.4 2.4 2.4H16c1.2 0 2.4-1.2 2.4-2.4V4.8H2.9"/>
            <circle cx="9.5" cy="31.7" r="1"/>
            <path d="M10 2.5h2.4"/>
        </g>
    </g>
</svg>
